<?xml version="1.0" encoding="utf-8"?>
<!-- Generator: Adobe Illustrator 25.2.0, SVG Export Plug-In . SVG Version: 6.00 Build 0)  -->
<svg version="1.1" id="Layer_1" xmlns="http://www.w3.org/2000/svg" xmlns:xlink="http://www.w3.org/1999/xlink" x="0px" y="0px"
	 viewBox="0 0 1844 578.3" style="enable-background:new 0 0 1844 578.3;" xml:space="preserve">
<style type="text/css">
	.st0{fill:url(#SVGID_1_);}
</style>
<linearGradient id="SVGID_1_" gradientUnits="userSpaceOnUse" x1="0" y1="289.1336" x2="1844" y2="289.1336">
	<stop  offset="0" style="stop-color:#2D82B7"/>
	<stop  offset="0.368" style="stop-color:#03CAFD"/>
	<stop  offset="1" style="stop-color:#42E2B8"/>
</linearGradient>
<path class="st0" d="M1782.1,84c-28.1,29-59.9,54.3-93.7,76.3c-109.4,71.2-237.9,117.6-367,135.1c-112.9,15.2-219.5,2.4-330.4-19.2
	c-7.3-1.4-14.7-2.8-22-4.2c-114.7-20.7-248.8-41.6-367.6-46.3c-214-8.5-422.1,14.1-592.3,104.8c-2.9,1.6-5.9,3.1-8.7,4.8
	c-0.1,0-0.2,0.1-0.2,0.3v242.8c20.2-12.7,73.8-41.8,93.9-53.1c28.5-16.2,57.6-31.9,87.2-47.2c90-46.5,181.6-71.9,280-97.8
	c60.1-15.6,122-23.5,184.1-23.6c16.3,0,32.6,0.5,48.9,1.5c80.6,5.1,157.9,26,236,45.4c238.1,59.1,491.5,67,734.2,34.1
	c30.9-4.2,61.7-9.1,92.4-14.7c29.3-5.4,58.5-11.4,87.5-18V0C1840.8,28,1799.7,65.8,1782.1,84z"/>
</svg>
