<?xml version="1.0" encoding="utf-8"?>
<!-- Generator: Adobe Illustrator 25.2.0, SVG Export Plug-In . SVG Version: 6.00 Build 0)  -->
<svg version="1.1" id="Layer_1" xmlns="http://www.w3.org/2000/svg" xmlns:xlink="http://www.w3.org/1999/xlink" x="0px" y="0px"
	 viewBox="0 0 1844 184.6" style="enable-background:new 0 0 1844 184.6;" xml:space="preserve">
<style type="text/css">
	.st0{fill:#FFFFFF;}
</style>
<path class="st0" d="M0-497.4V165c33.8-13.6,76.5-26.1,126.9-37.2c47.6-10.5,102-19.7,161.7-27.4c57.1-7.3,118.3-13.2,182-17.4
	c62.1-4.1,125.3-6.6,187.9-7.4c8.4-0.2,16.9-0.3,25.3-0.3c17.6,0,35.7,0.4,53.8,1.2c17.2,0.8,35,1.9,52.9,3.5
	c33,2.8,66.8,6.9,103.5,12.4c30.7,4.6,63.7,10.3,101,17.5c32.5,6.2,64.3,12.8,99.4,20.1l6.1,1.3c31.8,6.6,64.7,13.4,97.1,19.7
	c36.2,7,68,12.6,97.1,17.1c34.9,5.4,66.9,9.3,97.9,12c16.8,1.5,33.4,2.6,49.5,3.4c16.9,0.8,33.7,1.2,50,1.2c24.1,0,48-0.9,71.2-2.6
	c40.6-4.8,73.9-10.6,101.7-17.7c12.6-3.2,25.1-7,37.3-11.4c10.5-3.8,20.8-8.3,30.8-13.4c17.8-9.2,34.4-20.3,49.6-33.3
	c15.1-12.7,29.5-26.8,46.2-43.3l0,0l0.1-0.1c4.8-4.7,9.8-9.6,15-14.7v-545.5H0z"/>
</svg>
